<svg xmlns="http://www.w3.org/2000/svg" viewBox="0 0 64 64" width="64" height="64">
  <circle fill="#fff" cx="32" cy="34" r="27" />
  <path fill="#666" id="Calque_3" d="M30.2 9.9l5.7 5-2.9 3.6-9.3-8L31.8 1l3.5 3-5.1 5.9z"/>
  <path fill="#1d83d4" d="M35 21.3c-.6-.6-1.4-.9-2.3-.9v34.5L48.1 53l8.3-11.6L35 21.3z"/>
  <path fill="#d3d3d3" d="M32.7 20.4c-.7 0-1.4.3-2 .9L9.1 44.8l16.5 11 7.1-.9V20.4z" />
  <path fill="#666" d="M32 6.9c-1.1 0-2.2.1-3.3.2v6.1c1.1-.2 2.2-.3 3.3-.3 11.6 0 21 9.4 21 21s-9.4 21-21 21c-11 0-20-8.4-20.9-19.1h-6C6.1 49.9 17.7 61 32 61c14.9 0 27-12.1 27-27S46.9 6.9 32 6.9z"/>
</svg>
