<svg xmlns="http://www.w3.org/2000/svg" viewBox="0 0 64 64" width="64" height="64">
  <circle fill="#fff" cx="32" cy="34" r="26" />
  <path fill="#1d83d4" d="M34 38h-6V19h6v19zm-6 0l3-5 12 7-3 5-12-7z" />
  <path fill="#666" d="M29 7.2l.2 4.2c6.4-.8 13.1 1.2 18.3 5.9 9.2 8.6 9.8 22.9 1.2 32.2-8.6 9.2-22.9 9.8-32.2 1.2-5.4-5-7.8-12-7.2-18.7l-4.1-.9c-.9 8.2 1.9 16.7 8.4 22.7 10.9 10.1 28 9.5 38.1-1.4s9.5-28-1.4-38.1c-6-5.6-13.8-7.9-21.3-7.1"/>
  <path fill="#666" d="M29.3 9.3l4.9 4.3-2.5 3-8-6.9 7-8.1 3 2.6-4.4 5.1z"/>
</svg>
