<svg xmlns="http://www.w3.org/2000/svg" viewBox="-3 -3 518 518" width="64" height="64">
  <g class="arrow" stroke-width="5" stroke="#000">
    <path d="M423.243 108.24c-40.719-40.719-93.671-64.753-150.568-68.69l28.76-28.761L290.646 0l-48.12 48.12 48.12 48.12 10.789-10.789-30.726-30.726c115.169 7.597 206.549 103.699 206.549 220.758 0 122.002-99.256 221.258-221.258 221.258S34.742 397.486 34.742 275.483c0-4.907.163-9.869.483-14.745l-15.227-1.001a241.413 241.413 0 00-.516 15.746c0 63.176 24.602 122.571 69.275 167.243S192.824 512.001 256 512.001s122.571-24.602 167.243-69.275 69.275-104.067 69.275-167.243-24.602-122.572-69.275-167.243zM60.777 141.921a237.051 237.051 0 00-8.475 13.293l13.133 7.77a222.487 222.487 0 017.929-12.437l-12.587-8.626zM80.277 117.169a238.575 238.575 0 00-10.16 12.051l11.986 9.443a224.06 224.06 0 019.509-11.277l-11.335-10.217z"/>
    <path d="M24.152 228.49a236.4 236.4 0 00-2.598 15.556l15.126 2.009a221.97 221.97 0 012.43-14.549l-14.958-3.016zM102.875 95.218a239.13 239.13 0 00-11.663 10.601l10.633 10.945a223.463 223.463 0 0110.913-9.919l-9.883-11.627zM44.731 169.042a237.045 237.045 0 00-6.632 14.308l14.052 5.949a222.417 222.417 0 016.202-13.381l-13.622-6.876zM32.443 198.073a234.638 234.638 0 00-4.657 15.069l14.722 4.012a221.531 221.531 0 014.354-14.088l-14.419-4.993z"/>
  </g>
  <g class="s-clock">
    <circle cx="257" cy="275" r="160" fill="#fff"/>
    <path d="M257.065 107.631c-92.26 0-167.319 75.059-167.319 167.319s75.059 167.32 167.319 167.32 167.319-75.059 167.319-167.319-75.059-167.32-167.319-167.32zm0 319.379c-83.845 0-152.06-68.214-152.06-152.06s68.215-152.06 152.06-152.06c83.846 0 152.06 68.214 152.06 152.06s-68.214 152.06-152.06 152.06z" stroke-width="10" stroke="#000"/>
    <path stroke-width="10" stroke="#000" d="M248.369 140.69h15.259v15.259h-15.259zM248.369 392.975h15.259v15.259h-15.259zM122.226 266.833h15.259v15.259h-15.259zM374.512 266.833h15.259v15.259h-15.259zM263.63 268.762v-84.326h-15.259v90.647l47.503 47.503 10.79-10.79z"/>
  </g>
</svg>
