<svg xmlns="http://www.w3.org/2000/svg" viewBox="0 0 64 64" width="64" height="64">
  <circle cx="32" cy="34" r="27" fill="#fff"/>
  <path fill="#666" d="M32 6.9c-1.1 0-2.2.1-3.3.2v6.1c1.1-.2 2.2-.3 3.3-.3 11.6 0 21 9.4 21 21s-9.4 21-21 21c-11 0-20-8.4-20.9-19.1h-6C6.1 49.9 17.7 61 32 61c14.9 0 27-12.1 27-27S46.9 6.9 32 6.9z"/>
  <path d="M34.1 39h-5.5V21.9h5.5V39zm-5.4 0l2.7-4.5L42.3 41l-2.7 4.5L28.7 39z" fill="#1d83d4"/>
  <path fill="#666" d="M30.2 9.9l5.7 5-2.9 3.6-9.3-8L31.8 1l3.5 3-5.1 5.9z"/>
</svg>