<svg xmlns="http://www.w3.org/2000/svg" viewBox="0 0 64 64"  width="64" height="64">
  <style>
    .st1{fill:#666}
  </style>
  <circle cx="32.4" cy="34.4" r="26.8" fill="#fff" id="Calque_6"/>
  <path d="M34.9 38.8h-6.1V19.7h6.1v19.1zm-6-.2l3-5.2 11.9 6.9-3 5.2-11.9-6.9z" id="Calque_5"/>
  <g id="Calque_4">
    <path class="st1" d="M120.7 159.9l.2 4.2c6.4-.8 13.1 1.2 18.3 5.9 9.2 8.6 9.8 22.9 1.2 32.2-8.6 9.2-22.9 9.8-32.2 1.2-5.4-5-7.8-12-7.2-18.7l-4.1-.9c-.9 8.2 1.9 16.7 8.4 22.7 10.9 10.1 28 9.5 38.1-1.4 10.1-10.9 9.5-28-1.4-38.1-6-5.6-13.8-7.9-21.3-7.1" transform="translate(-91.214 -152.156)"/>
    <path class="st1" d="M121 162l4.9 4.3-2.5 3-8-6.9 7-8.1 3 2.6z" transform="translate(-91.214 -152.156)"/>
  </g>
</svg>
